<svg width="45" height="44" viewBox="0 0 45 44" fill="none" xmlns="http://www.w3.org/2000/svg">
<path d="M45 22C45 28.0751 42.4816 33.5751 38.4099 37.5563C34.3382 41.5376 28.7132 44 22.5 44C16.2868 44 10.6618 41.5376 6.5901 37.5563C2.5184 33.5751 0 28.0751 0 22C0 15.9249 2.5184 10.4249 6.5901 6.44365C10.6618 2.46243 16.2868 0 22.5 0C28.7132 0 34.3382 2.46243 38.4099 6.44365C42.4816 10.4249 45 15.9249 45 22Z" fill="white" fill-opacity="0.1"/>
<g clip-path="url(#clip0)">
<path d="M32.7064 17.8801C32.6585 16.8174 32.4828 16.0868 32.231 15.4537C31.9713 14.7818 31.5717 14.1801 31.0482 13.68C30.5367 13.1721 29.9173 12.7774 29.2381 12.5274C28.5869 12.2813 27.8436 12.1094 26.7568 12.0626C25.6618 12.0118 25.3142 12 22.5371 12C19.76 12 19.4124 12.0118 18.3215 12.0586C17.2347 12.1055 16.4875 12.2775 15.8402 12.5235C15.1528 12.7774 14.5376 13.1681 14.0261 13.68C13.5066 14.1801 13.1031 14.7857 12.8473 15.4499C12.5955 16.0868 12.4198 16.8134 12.3719 17.8761C12.3199 18.9467 12.3079 19.2866 12.3079 22.002C12.3079 24.7173 12.3199 25.0572 12.3678 26.1239C12.4157 27.1865 12.5916 27.9171 12.8434 28.5502C13.1031 29.2221 13.5066 29.8238 14.0261 30.3239C14.5376 30.8318 15.1569 31.2265 15.8362 31.4765C16.4875 31.7226 17.2307 31.8945 18.3176 31.9413C19.4084 31.9883 19.7561 31.9999 22.5332 31.9999C25.3103 31.9999 25.6579 31.9883 26.7488 31.9413C27.8356 31.8945 28.5828 31.7226 29.2301 31.4765C30.6047 30.9568 31.6916 29.8941 32.223 28.5502C32.4747 27.9133 32.6506 27.1865 32.6985 26.1239C32.7464 25.0572 32.7584 24.7173 32.7584 22.002C32.7584 19.2866 32.7544 18.9467 32.7064 17.8801ZM30.8645 26.0457C30.8205 27.0225 30.6527 27.5499 30.5128 27.9015C30.1691 28.7728 29.4619 29.4643 28.5708 29.8004C28.2112 29.9372 27.6678 30.1012 26.6728 30.1441C25.5939 30.1911 25.2703 30.2027 22.5412 30.2027C19.812 30.2027 19.4844 30.1911 18.4094 30.1441C17.4105 30.1012 16.871 29.9372 16.5114 29.8004C16.068 29.6402 15.6643 29.3862 15.3367 29.0541C14.9971 28.7298 14.7373 28.3391 14.5735 27.9055C14.4336 27.5539 14.2658 27.0225 14.2219 26.0497C14.1739 24.9948 14.162 24.6783 14.162 22.0097C14.162 19.3412 14.1739 19.0209 14.2219 17.9699C14.2658 16.9932 14.4336 16.4657 14.5735 16.1141C14.7373 15.6804 14.9971 15.2859 15.3408 14.9654C15.6723 14.6333 16.0719 14.3793 16.5155 14.2192C16.8751 14.0825 17.4186 13.9184 18.4135 13.8754C19.4923 13.8285 19.8161 13.8168 22.5451 13.8168C25.2783 13.8168 25.6019 13.8285 26.6768 13.8754C27.6758 13.9184 28.2152 14.0825 28.5748 14.2192C29.0183 14.3793 29.4219 14.6333 29.7495 14.9654C30.0892 15.2897 30.3489 15.6804 30.5128 16.1141C30.6527 16.4657 30.8205 16.997 30.8645 17.9699C30.9124 19.0248 30.9244 19.3412 30.9244 22.0097C30.9244 24.6783 30.9124 24.9908 30.8645 26.0457Z" fill="white"/>
<path d="M22.5379 16.8641C19.6371 16.8641 17.2834 19.1653 17.2834 22.0019C17.2834 24.8384 19.6371 27.1396 22.5379 27.1396C25.439 27.1396 27.7924 24.8384 27.7924 22.0019C27.7924 19.1653 25.439 16.8641 22.5379 16.8641ZM22.5379 25.3346C20.656 25.3346 19.1295 23.8421 19.1295 22.0019C19.1295 20.1616 20.656 18.6691 22.5379 18.6691C24.42 18.6691 25.9464 20.1616 25.9464 22.0019C25.9464 23.8421 24.42 25.3346 22.5379 25.3346V25.3346Z" fill="white"/>
<path d="M29.227 16.6611C29.227 17.3235 28.6777 17.8605 28.0001 17.8605C27.3227 17.8605 26.7734 17.3235 26.7734 16.6611C26.7734 15.9986 27.3227 15.4617 28.0001 15.4617C28.6777 15.4617 29.227 15.9986 29.227 16.6611V16.6611Z" fill="white"/>
</g>
<defs>
<clipPath id="clip0">
<rect width="20.4545" height="20" fill="white" transform="translate(12.2727 12)"/>
</clipPath>
</defs>
</svg>
