<svg width="45" height="44" viewBox="0 0 45 44" fill="none" xmlns="http://www.w3.org/2000/svg">
<path d="M45 22C45 28.0751 42.4816 33.5751 38.4099 37.5564C34.3382 41.5376 28.7132 44 22.5 44C16.2868 44 10.6618 41.5376 6.5901 37.5564C2.5184 33.5751 0 28.0751 0 22C0 15.9249 2.5184 10.4249 6.5901 6.44365C10.6618 2.46243 16.2868 0 22.5 0C28.7132 0 34.3382 2.46243 38.4099 6.44365C42.4816 10.4249 45 15.9249 45 22Z" fill="#2196F3"/>
<g clip-path="url(#clip0)">
<path d="M32.7272 15.7988C31.9666 16.125 31.1561 16.3412 30.3111 16.4462C31.1804 15.9388 31.8439 15.1412 32.1558 14.18C31.3453 14.6525 30.4504 14.9863 29.4967 15.1725C28.7271 14.3713 27.6302 13.875 26.4336 13.875C24.1121 13.875 22.243 15.7175 22.243 17.9763C22.243 18.3012 22.2711 18.6137 22.3402 18.9112C18.854 18.745 15.7692 17.1113 13.6969 14.6225C13.3351 15.2363 13.1228 15.9388 13.1228 16.695C13.1228 18.115 13.8707 19.3737 14.9855 20.1025C14.3118 20.09 13.6508 19.8988 13.0909 19.5975C13.0909 19.61 13.0909 19.6262 13.0909 19.6425C13.0909 21.635 14.5444 23.29 16.4505 23.6712C16.1092 23.7625 15.7372 23.8062 15.3511 23.8062C15.0826 23.8062 14.8116 23.7913 14.5572 23.7362C15.1005 25.36 16.6423 26.5538 18.4755 26.5925C17.0488 27.6838 15.2373 28.3412 13.2763 28.3412C12.9324 28.3412 12.6025 28.3263 12.2727 28.285C14.1302 29.4563 16.3317 30.125 18.7057 30.125C26.4221 30.125 30.6409 23.875 30.6409 18.4575C30.6409 18.2762 30.6345 18.1013 30.6255 17.9275C31.4578 17.35 32.1571 16.6288 32.7272 15.7988Z" fill="white"/>
</g>
<rect x="12.7727" y="12.5" width="19.4545" height="19" stroke="white"/>
<defs>
<clipPath id="clip0">
</clipPath>
</defs>
</svg>
