<svg width="21" height="20" viewBox="0 0 21 20" fill="none" xmlns="http://www.w3.org/2000/svg">
<g clip-path="url(#clip0)">
<path d="M20.7064 5.88005C20.6585 4.81738 20.4828 4.0868 20.231 3.45374C19.9713 2.78176 19.5717 2.18014 19.0482 1.68002C18.5367 1.1721 17.9173 0.777435 17.2381 0.527447C16.5869 0.281274 15.8436 0.109427 14.7568 0.0625732C13.6618 0.0117516 13.3142 0 10.5371 0C7.76004 0 7.41243 0.0117516 6.32155 0.0586052C5.23472 0.105459 4.48754 0.277459 3.84025 0.523479C3.15284 0.777435 2.53755 1.16814 2.02606 1.68002C1.5066 2.18014 1.10312 2.78573 0.847295 3.44992C0.595528 4.0868 0.419775 4.81341 0.371857 5.87609C0.31988 6.9467 0.307861 7.28658 0.307861 10.002C0.307861 12.7173 0.31988 13.0572 0.367798 14.1239C0.415717 15.1865 0.591626 15.9171 0.843393 16.5502C1.10312 17.2221 1.5066 17.8238 2.02606 18.3239C2.53755 18.8318 3.1569 19.2265 3.83619 19.4765C4.48754 19.7226 5.23066 19.8945 6.31765 19.9413C7.40838 19.9883 7.75614 19.9999 10.5332 19.9999C13.3103 19.9999 13.6579 19.9883 14.7488 19.9413C15.8356 19.8945 16.5828 19.7226 17.2301 19.4765C18.6047 18.9568 19.6916 17.8941 20.223 16.5502C20.4747 15.9133 20.6506 15.1865 20.6985 14.1239C20.7464 13.0572 20.7584 12.7173 20.7584 10.002C20.7584 7.28658 20.7544 6.9467 20.7064 5.88005ZM18.8645 14.0457C18.8205 15.0225 18.6527 15.5499 18.5128 15.9015C18.1691 16.7728 17.4619 17.4643 16.5708 17.8004C16.2112 17.9372 15.6678 18.1012 14.6728 18.1441C13.5939 18.1911 13.2703 18.2027 10.5412 18.2027C7.81201 18.2027 7.48439 18.1911 6.40942 18.1441C5.41047 18.1012 4.87104 17.9372 4.51142 17.8004C4.06798 17.6402 3.66434 17.3862 3.33671 17.0541C2.99707 16.7298 2.73734 16.3391 2.57345 15.9055C2.4336 15.5539 2.26581 15.0225 2.22195 14.0497C2.17387 12.9948 2.16201 12.6783 2.16201 10.0097C2.16201 7.34122 2.17387 7.02087 2.22195 5.96995C2.26581 4.99319 2.4336 4.46575 2.57345 4.11412C2.73734 3.68038 2.99707 3.28586 3.34077 2.96536C3.6723 2.63327 4.07188 2.37931 4.51548 2.21921C4.8751 2.08247 5.41859 1.9184 6.41348 1.87537C7.49235 1.82851 7.81607 1.81676 10.5451 1.81676C13.2783 1.81676 13.6019 1.82851 14.6768 1.87537C15.6758 1.9184 16.2152 2.08247 16.5748 2.21921C17.0183 2.37931 17.4219 2.63327 17.7495 2.96536C18.0892 3.28967 18.3489 3.68038 18.5128 4.11412C18.6527 4.46575 18.8205 4.99701 18.8645 5.96995C18.9124 7.02484 18.9244 7.34122 18.9244 10.0097C18.9244 12.6783 18.9124 12.9908 18.8645 14.0457Z" fill="white"/>
<path d="M10.5379 4.86414C7.63707 4.86414 5.28345 7.16531 5.28345 10.0019C5.28345 12.8384 7.63707 15.1396 10.5379 15.1396C13.439 15.1396 15.7924 12.8384 15.7924 10.0019C15.7924 7.16531 13.439 4.86414 10.5379 4.86414ZM10.5379 13.3346C8.656 13.3346 7.12948 11.8421 7.12948 10.0019C7.12948 8.16159 8.656 6.66914 10.5379 6.66914C12.42 6.66914 13.9464 8.16159 13.9464 10.0019C13.9464 11.8421 12.42 13.3346 10.5379 13.3346Z" fill="white"/>
<path d="M17.227 4.6611C17.227 5.32346 16.6777 5.86052 16.0001 5.86052C15.3227 5.86052 14.7734 5.32346 14.7734 4.6611C14.7734 3.99858 15.3227 3.46167 16.0001 3.46167C16.6777 3.46167 17.227 3.99858 17.227 4.6611Z" fill="white"/>
</g>
<defs>
<clipPath id="clip0">
<rect width="20.4545" height="20" fill="white" transform="translate(0.272705)"/>
</clipPath>
</defs>
</svg>
