<svg width="21" height="20" viewBox="0 0 21 20" fill="none" xmlns="http://www.w3.org/2000/svg">
<g clip-path="url(#clip0)">
<path d="M20.7222 20.0001V19.9993H20.7273V12.6643C20.7273 9.07593 19.9372 6.31177 15.6469 6.31177C13.5844 6.31177 12.2003 7.41843 11.6353 8.4676H11.5756V6.64677H7.50769V19.9993H11.7435V13.3876C11.7435 11.6468 12.081 9.96343 14.2858 9.96343C16.4583 9.96343 16.4907 11.9501 16.4907 13.4993V20.0001H20.7222Z" fill="white"/>
<path d="M0.610229 6.64746H4.85114V20H0.610229V6.64746Z" fill="white"/>
<path d="M2.72895 0C1.37299 0 0.272705 1.07583 0.272705 2.40167C0.272705 3.7275 1.37299 4.82583 2.72895 4.82583C4.08492 4.82583 5.1852 3.7275 5.1852 2.40167C5.18435 1.07583 4.08407 0 2.72895 0V0Z" fill="white"/>
</g>
<defs>
<clipPath id="clip0">
<rect width="20.4545" height="20" fill="white" transform="translate(0.272705)"/>
</clipPath>
</defs>
</svg>
