<svg width="210" height="80" viewBox="0 0 210 80" fill="none" xmlns="http://www.w3.org/2000/svg">
<path d="M12.9961 13H10.9385V4.70801H6.95312V13H4.90234V3.04688H12.9961V13ZM17.2716 9.49316V13H15.2208V3.04688H19.1036C19.851 3.04688 20.5072 3.18359 21.0723 3.45703C21.642 3.73047 22.0795 4.12012 22.3848 4.62598C22.6902 5.12728 22.8429 5.69922 22.8429 6.3418C22.8429 7.31706 22.5079 8.08724 21.838 8.65234C21.1726 9.21289 20.2498 9.49316 19.0694 9.49316H17.2716ZM17.2716 7.83203H19.1036C19.6459 7.83203 20.0583 7.70443 20.3409 7.44922C20.628 7.19401 20.7716 6.82943 20.7716 6.35547C20.7716 5.86784 20.628 5.47363 20.3409 5.17285C20.0538 4.87207 19.6573 4.71712 19.1514 4.70801H17.2716V7.83203ZM30.6457 3.04688H32.7033V13H30.6457V6.38965L26.6603 13H24.6095V3.04688H26.6603V9.6709L30.6457 3.04688ZM42.7141 9.68457C42.6366 10.7555 42.2401 11.5986 41.5246 12.2139C40.8137 12.8291 39.8749 13.1367 38.7082 13.1367C37.4322 13.1367 36.4273 12.7083 35.6936 11.8516C34.9644 10.9902 34.5998 9.8099 34.5998 8.31055V7.70215C34.5998 6.74512 34.7685 5.90202 35.1057 5.17285C35.4429 4.44368 35.9237 3.88542 36.5481 3.49805C37.177 3.10612 37.9062 2.91016 38.7356 2.91016C39.884 2.91016 40.8092 3.21777 41.511 3.83301C42.2128 4.44824 42.6184 5.31185 42.7278 6.42383H40.677C40.6269 5.78125 40.4468 5.31641 40.137 5.0293C39.8316 4.73763 39.3645 4.5918 38.7356 4.5918C38.052 4.5918 37.5393 4.83789 37.1975 5.33008C36.8603 5.81771 36.6871 6.5765 36.678 7.60645V8.3584C36.678 9.43392 36.8398 10.2201 37.1633 10.7168C37.4914 11.2135 38.0064 11.4619 38.7082 11.4619C39.3417 11.4619 39.8134 11.3184 40.1233 11.0312C40.4377 10.7396 40.6177 10.2907 40.6633 9.68457H42.7141ZM52.6566 8.24902C52.6566 9.22884 52.4834 10.0879 52.137 10.8262C51.7907 11.5645 51.2939 12.1341 50.6468 12.5352C50.0042 12.9362 49.2659 13.1367 48.432 13.1367C47.6071 13.1367 46.8711 12.9385 46.2239 12.542C45.5768 12.1455 45.0755 11.5804 44.72 10.8467C44.3646 10.1084 44.1846 9.26074 44.18 8.30371V7.81152C44.18 6.83171 44.3555 5.97038 44.7064 5.22754C45.0618 4.48014 45.5609 3.9082 46.2034 3.51172C46.8506 3.11068 47.5889 2.91016 48.4183 2.91016C49.2477 2.91016 49.9837 3.11068 50.6263 3.51172C51.2734 3.9082 51.7724 4.48014 52.1234 5.22754C52.4788 5.97038 52.6566 6.82943 52.6566 7.80469V8.24902ZM50.5784 7.79785C50.5784 6.75423 50.3916 5.96126 50.0179 5.41895C49.6442 4.87663 49.111 4.60547 48.4183 4.60547C47.7301 4.60547 47.1992 4.87435 46.8255 5.41211C46.4518 5.94531 46.2627 6.72917 46.2581 7.76367V8.24902C46.2581 9.2653 46.445 10.0537 46.8187 10.6143C47.1924 11.1748 47.7301 11.4551 48.432 11.4551C49.1201 11.4551 49.6488 11.1862 50.0179 10.6484C50.387 10.1061 50.5739 9.31771 50.5784 8.2832V7.79785ZM60.5551 8.68652H56.6176V11.3525H61.2387V13H54.5668V3.04688H61.225V4.70801H56.6176V7.08008H60.5551V8.68652ZM72.0903 15.4473H70.1968V13H64.1948V15.4404H62.2534L62.144 11.3525H62.896C63.3016 11.0153 63.6138 10.5208 63.8325 9.86914C64.0558 9.21289 64.2062 8.40169 64.2837 7.43555L64.5708 3.04688H71.0923V11.3525H72.2544L72.0903 15.4473ZM65.2475 11.3525H69.0415V4.70801H66.519L66.3481 7.32617C66.2114 9.08073 65.8445 10.4229 65.2475 11.3525ZM79.7222 3.04688H81.7798V13H79.7222V6.38965L75.7369 13H73.6861V3.04688H75.7369V9.6709L79.7222 3.04688ZM92.0778 13H90.027V8.73438H86.028V13H83.9772V3.04688H86.028V7.08008H90.027V3.04688H92.0778V13ZM98.8962 13V9.41113H97.2282L95.4304 13H93.2155L95.3415 8.75488C94.3161 8.18978 93.8034 7.3125 93.8034 6.12305C93.8034 5.14779 94.1224 4.39355 94.7605 3.86035C95.3985 3.32715 96.2894 3.05599 97.4333 3.04688H100.954V13H98.8962ZM95.8542 6.27344C95.8542 6.82943 95.9887 7.23275 96.2575 7.4834C96.531 7.73405 96.9389 7.85938 97.4812 7.85938H98.8962V4.70801H97.4812C96.3965 4.70801 95.8542 5.22982 95.8542 6.27344ZM109.037 3.04688H111.095V13H109.037V6.38965L105.052 13H103.001V3.04688H105.052V9.6709L109.037 3.04688ZM109.433 0.428711C109.433 1.03483 109.215 1.52474 108.777 1.89844C108.344 2.27214 107.775 2.45898 107.068 2.45898C106.362 2.45898 105.79 2.27441 105.352 1.90527C104.919 1.53613 104.703 1.04395 104.703 0.428711H106.104C106.104 0.71582 106.189 0.939128 106.357 1.09863C106.53 1.25358 106.767 1.33105 107.068 1.33105C107.364 1.33105 107.597 1.25358 107.765 1.09863C107.934 0.939128 108.018 0.71582 108.018 0.428711H109.433ZM120.784 4.70801H117.735V13H115.684V4.70801H112.677V3.04688H120.784V4.70801ZM128.368 8.68652H124.431V11.3525H129.052V13H122.38V3.04688H129.038V4.70801H124.431V7.08008H128.368V8.68652ZM138.488 9.68457C138.411 10.7555 138.014 11.5986 137.299 12.2139C136.588 12.8291 135.649 13.1367 134.482 13.1367C133.206 13.1367 132.202 12.7083 131.468 11.8516C130.739 10.9902 130.374 9.8099 130.374 8.31055V7.70215C130.374 6.74512 130.543 5.90202 130.88 5.17285C131.217 4.44368 131.698 3.88542 132.322 3.49805C132.951 3.10612 133.68 2.91016 134.51 2.91016C135.658 2.91016 136.583 3.21777 137.285 3.83301C137.987 4.44824 138.393 5.31185 138.502 6.42383H136.451C136.401 5.78125 136.221 5.31641 135.911 5.0293C135.606 4.73763 135.139 4.5918 134.51 4.5918C133.826 4.5918 133.314 4.83789 132.972 5.33008C132.634 5.81771 132.461 6.5765 132.452 7.60645V8.3584C132.452 9.43392 132.614 10.2201 132.938 10.7168C133.266 11.2135 133.781 11.4619 134.482 11.4619C135.116 11.4619 135.588 11.3184 135.897 11.0312C136.212 10.7396 136.392 10.2907 136.438 9.68457H138.488ZM142.306 6.63574H143.905C145.077 6.63574 146.004 6.92057 146.688 7.49023C147.376 8.05534 147.72 8.81868 147.72 9.78027C147.72 10.7464 147.378 11.5234 146.694 12.1113C146.015 12.6947 145.111 12.9909 143.981 13H140.241V3.04688H142.306V6.63574ZM142.306 8.29004V11.3525H143.94C144.464 11.3525 144.881 11.209 145.191 10.9219C145.505 10.6348 145.662 10.2497 145.662 9.7666C145.662 9.31543 145.512 8.95996 145.211 8.7002C144.915 8.43587 144.507 8.29915 143.987 8.29004H142.306Z" fill="white"/>
<path d="M210 58C210 64.0751 207.482 69.5751 203.41 73.5563C199.338 77.5376 193.713 80 187.5 80C181.287 80 175.662 77.5376 171.59 73.5563C167.518 69.5751 165 64.0751 165 58C165 51.9249 167.518 46.4249 171.59 42.4437C175.662 38.4624 181.287 36 187.5 36C193.713 36 199.338 38.4624 203.41 42.4437C207.482 46.4249 210 51.9249 210 58Z" fill="white" fill-opacity="0.1"/>
<g clip-path="url(#clip0)">
<path d="M197.722 68.0001V67.9993H197.727V60.6643C197.727 57.0759 196.937 54.3118 192.647 54.3118C190.584 54.3118 189.2 55.4184 188.635 56.4676H188.576V54.6468H184.508V67.9993H188.743V61.3876C188.743 59.6468 189.081 57.9634 191.286 57.9634C193.458 57.9634 193.491 59.9501 193.491 61.4993V68.0001H197.722Z" fill="white"/>
<path d="M177.61 54.6475H181.851V68H177.61V54.6475Z" fill="white"/>
<path d="M179.729 48C178.373 48 177.273 49.0758 177.273 50.4017C177.273 51.7275 178.373 52.8258 179.729 52.8258C181.085 52.8258 182.185 51.7275 182.185 50.4017C182.184 49.0758 181.084 48 179.729 48V48Z" fill="white"/>
</g>
<path d="M155 58C155 64.0751 152.482 69.5751 148.41 73.5563C144.338 77.5376 138.713 80 132.5 80C126.287 80 120.662 77.5376 116.59 73.5563C112.518 69.5751 110 64.0751 110 58C110 51.9249 112.518 46.4249 116.59 42.4437C120.662 38.4624 126.287 36 132.5 36C138.713 36 144.338 38.4624 148.41 42.4437C152.482 46.4249 155 51.9249 155 58Z" fill="white" fill-opacity="0.1"/>
<g clip-path="url(#clip1)">
<path d="M135.907 51.3208H137.774V48.1408C137.452 48.0975 136.344 48 135.053 48C132.361 48 130.517 49.6558 130.517 52.6992V55.5H127.546V59.055H130.517V68H134.159V59.0558H137.01L137.463 55.5008H134.159V53.0517C134.159 52.0242 134.442 51.3208 135.907 51.3208V51.3208Z" fill="white"/>
</g>
<path d="M100 58C100 64.0751 97.4816 69.5751 93.4099 73.5563C89.3382 77.5376 83.7132 80 77.5 80C71.2868 80 65.6618 77.5376 61.5901 73.5563C57.5184 69.5751 55 64.0751 55 58C55 51.9249 57.5184 46.4249 61.5901 42.4437C65.6618 38.4624 71.2868 36 77.5 36C83.7132 36 89.3382 38.4624 93.4099 42.4437C97.4816 46.4249 100 51.9249 100 58Z" fill="#2196F3"/>
<g clip-path="url(#clip2)">
<path d="M87.7272 51.7988C86.9666 52.125 86.1561 52.3412 85.3111 52.4462C86.1804 51.9387 86.8439 51.1412 87.1558 50.18C86.3453 50.6525 85.4504 50.9863 84.4967 51.1725C83.7271 50.3713 82.6302 49.875 81.4336 49.875C79.1121 49.875 77.243 51.7175 77.243 53.9763C77.243 54.3013 77.2711 54.6137 77.3402 54.9112C73.854 54.745 70.7692 53.1113 68.6969 50.6225C68.3351 51.2363 68.1228 51.9388 68.1228 52.695C68.1228 54.115 68.8707 55.3737 69.9855 56.1025C69.3118 56.09 68.6508 55.8988 68.0909 55.5975C68.0909 55.61 68.0909 55.6262 68.0909 55.6425C68.0909 57.635 69.5444 59.29 71.4505 59.6712C71.1092 59.7625 70.7372 59.8062 70.3511 59.8062C70.0826 59.8062 69.8116 59.7912 69.5572 59.7362C70.1005 61.36 71.6423 62.5537 73.4755 62.5925C72.0488 63.6837 70.2373 64.3412 68.2763 64.3412C67.9324 64.3412 67.6025 64.3262 67.2727 64.285C69.1302 65.4562 71.3317 66.125 73.7057 66.125C81.4221 66.125 85.6409 59.875 85.6409 54.4575C85.6409 54.2762 85.6345 54.1013 85.6255 53.9275C86.4578 53.35 87.1571 52.6288 87.7272 51.7988Z" fill="white"/>
</g>
<rect x="67.7727" y="48.5" width="19.4545" height="19" stroke="white"/>
<path d="M45 58C45 64.0751 42.4816 69.5751 38.4099 73.5563C34.3382 77.5376 28.7132 80 22.5 80C16.2868 80 10.6618 77.5376 6.5901 73.5563C2.5184 69.5751 0 64.0751 0 58C0 51.9249 2.5184 46.4249 6.5901 42.4437C10.6618 38.4624 16.2868 36 22.5 36C28.7132 36 34.3382 38.4624 38.4099 42.4437C42.4816 46.4249 45 51.9249 45 58Z" fill="white" fill-opacity="0.1"/>
<g clip-path="url(#clip3)">
<path d="M32.7064 53.8801C32.6585 52.8174 32.4828 52.0868 32.231 51.4537C31.9713 50.7818 31.5717 50.1801 31.0482 49.68C30.5367 49.1721 29.9173 48.7774 29.2381 48.5274C28.5869 48.2813 27.8436 48.1094 26.7568 48.0626C25.6618 48.0118 25.3142 48 22.5371 48C19.76 48 19.4124 48.0118 18.3215 48.0586C17.2347 48.1055 16.4875 48.2775 15.8402 48.5235C15.1528 48.7774 14.5376 49.1681 14.0261 49.68C13.5066 50.1801 13.1031 50.7857 12.8473 51.4499C12.5955 52.0868 12.4198 52.8134 12.3719 53.8761C12.3199 54.9467 12.3079 55.2866 12.3079 58.002C12.3079 60.7173 12.3199 61.0572 12.3678 62.1239C12.4157 63.1865 12.5916 63.9171 12.8434 64.5502C13.1031 65.2221 13.5066 65.8238 14.0261 66.3239C14.5376 66.8318 15.1569 67.2265 15.8362 67.4765C16.4875 67.7226 17.2307 67.8945 18.3176 67.9413C19.4084 67.9883 19.7561 67.9999 22.5332 67.9999C25.3103 67.9999 25.6579 67.9883 26.7488 67.9413C27.8356 67.8945 28.5828 67.7226 29.2301 67.4765C30.6047 66.9568 31.6916 65.8941 32.223 64.5502C32.4747 63.9133 32.6506 63.1865 32.6985 62.1239C32.7464 61.0572 32.7584 60.7173 32.7584 58.002C32.7584 55.2866 32.7544 54.9467 32.7064 53.8801ZM30.8645 62.0457C30.8205 63.0225 30.6527 63.5499 30.5128 63.9015C30.1691 64.7728 29.4619 65.4643 28.5708 65.8004C28.2112 65.9372 27.6678 66.1012 26.6728 66.1441C25.5939 66.1911 25.2703 66.2027 22.5412 66.2027C19.812 66.2027 19.4844 66.1911 18.4094 66.1441C17.4105 66.1012 16.871 65.9372 16.5114 65.8004C16.068 65.6402 15.6643 65.3862 15.3367 65.0541C14.9971 64.7298 14.7373 64.3391 14.5735 63.9055C14.4336 63.5539 14.2658 63.0225 14.2219 62.0497C14.1739 60.9948 14.162 60.6783 14.162 58.0097C14.162 55.3412 14.1739 55.0209 14.2219 53.9699C14.2658 52.9932 14.4336 52.4657 14.5735 52.1141C14.7373 51.6804 14.9971 51.2859 15.3408 50.9654C15.6723 50.6333 16.0719 50.3793 16.5155 50.2192C16.8751 50.0825 17.4186 49.9184 18.4135 49.8754C19.4923 49.8285 19.8161 49.8168 22.5451 49.8168C25.2783 49.8168 25.6019 49.8285 26.6768 49.8754C27.6758 49.9184 28.2152 50.0825 28.5748 50.2192C29.0183 50.3793 29.4219 50.6333 29.7495 50.9654C30.0892 51.2897 30.3489 51.6804 30.5128 52.1141C30.6527 52.4657 30.8205 52.997 30.8645 53.9699C30.9124 55.0248 30.9244 55.3412 30.9244 58.0097C30.9244 60.6783 30.9124 60.9908 30.8645 62.0457Z" fill="white"/>
<path d="M22.5379 52.8641C19.6371 52.8641 17.2834 55.1653 17.2834 58.0019C17.2834 60.8384 19.6371 63.1396 22.5379 63.1396C25.439 63.1396 27.7924 60.8384 27.7924 58.0019C27.7924 55.1653 25.439 52.8641 22.5379 52.8641ZM22.5379 61.3346C20.656 61.3346 19.1295 59.8421 19.1295 58.0019C19.1295 56.1616 20.656 54.6691 22.5379 54.6691C24.42 54.6691 25.9464 56.1616 25.9464 58.0019C25.9464 59.8421 24.42 61.3346 22.5379 61.3346V61.3346Z" fill="white"/>
<path d="M29.227 52.6611C29.227 53.3235 28.6777 53.8605 28.0001 53.8605C27.3227 53.8605 26.7734 53.3235 26.7734 52.6611C26.7734 51.9986 27.3227 51.4617 28.0001 51.4617C28.6777 51.4617 29.227 51.9986 29.227 52.6611V52.6611Z" fill="white"/>
</g>
<defs>
<clipPath id="clip0">
<rect width="20.4545" height="20" fill="white" transform="translate(177.273 48)"/>
</clipPath>
<clipPath id="clip1">
<rect width="20.4545" height="20" fill="white" transform="translate(122.273 48)"/>
</clipPath>
<clipPath id="clip2">
</clipPath>
<clipPath id="clip3">
<rect width="20.4545" height="20" fill="white" transform="translate(12.2727 48)"/>
</clipPath>
</defs>
</svg>
