<svg width="148" height="24" viewBox="0 0 148 24" fill="none" xmlns="http://www.w3.org/2000/svg">
<g filter="url(#filter0_d)">
<path d="M28.6895 7.52441H31.2871V9.04199H28.6895V12.002H27.0762V9.04199H24.4648V7.52441H27.0762V4.75586H28.6895V7.52441ZM34.7527 7.26465H35.7644C36.2748 7.26009 36.6781 7.12793 36.9743 6.86816C37.2751 6.6084 37.4255 6.23242 37.4255 5.74023C37.4255 5.26628 37.3002 4.89941 37.0495 4.63965C36.8034 4.37533 36.4252 4.24316 35.9148 4.24316C35.4682 4.24316 35.1013 4.37305 34.8142 4.63281C34.5271 4.88802 34.3835 5.22298 34.3835 5.6377H32.7224C32.7224 5.12728 32.8568 4.66243 33.1257 4.24316C33.3991 3.82389 33.7774 3.49805 34.2605 3.26562C34.7481 3.02865 35.2927 2.91016 35.8943 2.91016C36.8877 2.91016 37.667 3.16081 38.2321 3.66211C38.8018 4.15885 39.0866 4.85156 39.0866 5.74023C39.0866 6.18685 38.9431 6.6084 38.656 7.00488C38.3734 7.39681 38.0066 7.69303 37.5554 7.89355C38.1023 8.0804 38.517 8.37435 38.7995 8.77539C39.0866 9.17643 39.2302 9.65495 39.2302 10.2109C39.2302 11.1042 38.9226 11.8151 38.3073 12.3438C37.6967 12.8724 36.8923 13.1367 35.8943 13.1367C34.9372 13.1367 34.1534 12.8815 33.5427 12.3711C32.932 11.8607 32.6267 11.1816 32.6267 10.334H34.2878C34.2878 10.7715 34.4336 11.127 34.7253 11.4004C35.0215 11.6738 35.418 11.8105 35.9148 11.8105C36.4297 11.8105 36.8353 11.6738 37.1316 11.4004C37.4278 11.127 37.5759 10.7305 37.5759 10.2109C37.5759 9.68685 37.421 9.28353 37.1111 9.00098C36.8012 8.71842 36.3409 8.57715 35.7302 8.57715H34.7527V7.26465ZM47.3373 5.67188C47.3373 6.15951 47.212 6.59473 46.9614 6.97754C46.7107 7.35579 46.3689 7.6543 45.936 7.87305C46.4555 8.11458 46.8543 8.44499 47.1323 8.86426C47.4148 9.28353 47.5561 9.75749 47.5561 10.2861C47.5561 11.1611 47.2599 11.8561 46.6674 12.3711C46.075 12.8815 45.2866 13.1367 44.3022 13.1367C43.3133 13.1367 42.5203 12.8792 41.9233 12.3643C41.3308 11.8493 41.0346 11.1566 41.0346 10.2861C41.0346 9.75293 41.1759 9.27441 41.4584 8.85059C41.741 8.42676 42.1375 8.10091 42.6479 7.87305C42.2195 7.6543 41.88 7.35579 41.6293 6.97754C41.3832 6.59473 41.2602 6.15951 41.2602 5.67188C41.2602 4.82422 41.5336 4.15202 42.0805 3.65527C42.6274 3.15853 43.3657 2.91016 44.2954 2.91016C45.2296 2.91016 45.9702 3.15853 46.517 3.65527C47.0639 4.15202 47.3373 4.82422 47.3373 5.67188ZM45.895 10.2041C45.895 9.71191 45.7468 9.31543 45.4506 9.01465C45.159 8.70931 44.7716 8.55664 44.2885 8.55664C43.8054 8.55664 43.4181 8.70703 43.1264 9.00781C42.8393 9.30859 42.6957 9.70736 42.6957 10.2041C42.6957 10.6917 42.837 11.0814 43.1196 11.373C43.4067 11.6647 43.8009 11.8105 44.3022 11.8105C44.8035 11.8105 45.1931 11.6693 45.4711 11.3867C45.7537 11.1042 45.895 10.71 45.895 10.2041ZM45.683 5.7334C45.683 5.30046 45.5577 4.94499 45.3071 4.66699C45.0564 4.38444 44.7192 4.24316 44.2954 4.24316C43.8715 4.24316 43.5366 4.3776 43.2905 4.64648C43.0444 4.91081 42.9213 5.27311 42.9213 5.7334C42.9213 6.18913 43.0444 6.55143 43.2905 6.82031C43.5411 7.08919 43.8784 7.22363 44.3022 7.22363C44.726 7.22363 45.061 7.08919 45.3071 6.82031C45.5577 6.55143 45.683 6.18913 45.683 5.7334ZM59.5595 8.80957C59.5595 10.2406 59.2906 11.3206 58.7528 12.0498C58.2196 12.7744 57.4061 13.1367 56.3124 13.1367C55.2369 13.1367 54.4257 12.7835 53.8788 12.0771C53.3365 11.3662 53.0585 10.3158 53.0448 8.92578V7.20312C53.0448 5.77214 53.3114 4.69889 53.8446 3.9834C54.3824 3.2679 55.2004 2.91016 56.2987 2.91016C57.3879 2.91016 58.1991 3.25879 58.7323 3.95605C59.2701 4.65332 59.5458 5.69694 59.5595 7.08691V8.80957ZM57.8983 6.9502C57.8983 6.01595 57.7707 5.33236 57.5155 4.89941C57.2603 4.46191 56.8547 4.24316 56.2987 4.24316C55.7564 4.24316 55.3576 4.45052 55.1024 4.86523C54.8472 5.27539 54.7128 5.91797 54.6991 6.79297V9.04883C54.6991 9.97852 54.829 10.6712 55.0888 11.127C55.3485 11.5827 55.7564 11.8105 56.3124 11.8105C56.8456 11.8105 57.2398 11.6009 57.495 11.1816C57.7502 10.7578 57.8846 10.097 57.8983 9.19922V6.9502ZM66.0191 8.83691C65.4632 9.4248 64.8137 9.71875 64.0709 9.71875C63.1959 9.71875 62.4986 9.41341 61.9791 8.80273C61.4596 8.1875 61.1998 7.38086 61.1998 6.38281C61.1998 5.72656 61.332 5.13184 61.5963 4.59863C61.8606 4.06543 62.2366 3.65072 62.7242 3.35449C63.2119 3.05827 63.777 2.91016 64.4195 2.91016C65.4221 2.91016 66.2174 3.28385 66.8053 4.03125C67.3932 4.77865 67.6871 5.77897 67.6871 7.03223V7.49707C67.6871 9.29264 67.2815 10.6621 66.4703 11.6055C65.6591 12.5488 64.4492 13.0273 62.8404 13.041H62.6422V11.667H62.8814C63.8613 11.6533 64.6132 11.4186 65.1373 10.9629C65.6614 10.5026 65.9553 9.79395 66.0191 8.83691ZM64.4195 8.41992C64.7522 8.41992 65.0644 8.32422 65.3561 8.13281C65.6477 7.94141 65.8733 7.67708 66.0328 7.33984V6.69043C66.0328 5.95671 65.8824 5.36654 65.5816 4.91992C65.2809 4.47331 64.8912 4.25 64.4127 4.25C63.9342 4.25 63.5514 4.44824 63.2643 4.84473C62.9817 5.23665 62.8404 5.7334 62.8404 6.33496C62.8404 6.95931 62.984 7.46289 63.2711 7.8457C63.5582 8.22852 63.941 8.41992 64.4195 8.41992ZM74.7142 2.99902V4.37305H74.5091C73.5794 4.38672 72.8366 4.64193 72.2806 5.13867C71.7246 5.63542 71.3942 6.33952 71.2894 7.25098C71.8226 6.69043 72.5039 6.41016 73.3333 6.41016C74.2129 6.41016 74.9056 6.72005 75.4114 7.33984C75.9219 7.95964 76.1771 8.75944 76.1771 9.73926C76.1771 10.751 75.8786 11.5713 75.2816 12.2002C74.6891 12.8245 73.9098 13.1367 72.9437 13.1367C71.9502 13.1367 71.1435 12.7699 70.5238 12.0361C69.9085 11.3024 69.6009 10.3408 69.6009 9.15137V8.58398C69.6009 6.83854 70.0247 5.47135 70.8724 4.48242C71.7246 3.49349 72.9482 2.99902 74.5433 2.99902H74.7142ZM72.93 7.75C72.5654 7.75 72.2305 7.85254 71.9251 8.05762C71.6243 8.2627 71.4033 8.53613 71.262 8.87793V9.38379C71.262 10.1221 71.417 10.71 71.7269 11.1475C72.0368 11.5804 72.4378 11.7969 72.93 11.7969C73.4222 11.7969 73.8118 11.6123 74.0989 11.2432C74.3861 10.874 74.5296 10.3887 74.5296 9.78711C74.5296 9.18555 74.3838 8.69564 74.0921 8.31738C73.8004 7.93913 73.4131 7.75 72.93 7.75ZM86.0476 13H84.3933V5.00879L81.9529 5.84277V4.44141L85.8357 3.0127H86.0476V13ZM94.2846 13H92.6303V5.00879L90.1899 5.84277V4.44141L94.0727 3.0127H94.2846V13ZM102.522 13H100.867V5.00879L98.427 5.84277V4.44141L102.31 3.0127H102.522V13ZM114.525 13H112.871V5.00879L110.43 5.84277V4.44141L114.313 3.0127H114.525V13ZM122.762 13H121.108V5.00879L118.667 5.84277V4.44141L122.55 3.0127H122.762V13ZM134.765 13H133.111V5.00879L130.671 5.84277V4.44141L134.554 3.0127H134.765V13ZM143.002 13H141.348V5.00879L138.908 5.84277V4.44141L142.791 3.0127H143.002V13Z" fill="#757575"/>
<path d="M12.5 1H5.5C4.67285 1 4 1.6281 4 2.40025V14.5357C4 15.3079 4.67285 15.936 5.5 15.936H12.5C13.3272 15.936 14 15.3079 14 14.5357V2.40025C14 1.6281 13.3272 1 12.5 1ZM5.5 1.9335H12.5C12.7759 1.9335 13 2.14271 13 2.40025V12.202H5V2.40025C5 2.14271 5.22412 1.9335 5.5 1.9335ZM12.5 15.0025H5.5C5.22412 15.0025 5 14.7933 5 14.5357V13.1355H13V14.5357C13 14.7933 12.7759 15.0025 12.5 15.0025Z" fill="#757575"/>
<path d="M6.35355 13.7389C6.54882 13.9213 6.54882 14.2169 6.35355 14.3992C6.15828 14.5816 5.84172 14.5816 5.64645 14.3992C5.45118 14.2169 5.45118 13.9213 5.64645 13.7389C5.84172 13.5566 6.15828 13.5566 6.35355 13.7389Z" fill="#757575"/>
</g>
<defs>
<filter id="filter0_d" x="0" y="1" width="147.002" height="22.936" filterUnits="userSpaceOnUse" color-interpolation-filters="sRGB">
<feFlood flood-opacity="0" result="BackgroundImageFix"/>
<feColorMatrix in="SourceAlpha" type="matrix" values="0 0 0 0 0 0 0 0 0 0 0 0 0 0 0 0 0 0 127 0"/>
<feOffset dy="4"/>
<feGaussianBlur stdDeviation="2"/>
<feColorMatrix type="matrix" values="0 0 0 0 0 0 0 0 0 0 0 0 0 0 0 0 0 0 0.25 0"/>
<feBlend mode="normal" in2="BackgroundImageFix" result="effect1_dropShadow"/>
<feBlend mode="normal" in="SourceGraphic" in2="effect1_dropShadow" result="shape"/>
</filter>
</defs>
</svg>
