<svg width="21" height="20" viewBox="0 0 21 20" fill="none" xmlns="http://www.w3.org/2000/svg">
<g clip-path="url(#clip0)">
<path d="M20.7272 3.79875C19.9666 4.125 19.1561 4.34125 18.3111 4.44625C19.1804 3.93875 19.8439 3.14125 20.1558 2.18C19.3453 2.6525 18.4504 2.98625 17.4967 3.1725C16.7271 2.37125 15.6302 1.875 14.4336 1.875C12.1121 1.875 10.243 3.7175 10.243 5.97625C10.243 6.30125 10.2711 6.61375 10.3402 6.91125C6.85395 6.745 3.76915 5.11125 1.69685 2.6225C1.33506 3.23625 1.12285 3.93875 1.12285 4.695C1.12285 6.115 1.87072 7.37375 2.98549 8.1025C2.31177 8.09 1.65083 7.89875 1.09089 7.5975C1.09089 7.61 1.09089 7.62625 1.09089 7.6425C1.09089 9.635 2.54444 11.29 4.45055 11.6712C4.10921 11.7625 3.73719 11.8062 3.35111 11.8062C3.08265 11.8062 2.81163 11.7913 2.55722 11.7362C3.10055 13.36 4.64231 14.5538 6.47555 14.5925C5.04884 15.6838 3.23734 16.3412 1.27626 16.3412C0.932364 16.3412 0.602535 16.3263 0.272705 16.285C2.13023 17.4563 4.33165 18.125 6.70566 18.125C14.4221 18.125 18.6409 11.875 18.6409 6.4575C18.6409 6.27625 18.6345 6.10125 18.6255 5.9275C19.4578 5.35 20.1571 4.62875 20.7272 3.79875Z" fill="white"/>
</g>
<rect x="0.772705" y="0.5" width="19.4545" height="19" stroke="white"/>
<defs>
<clipPath id="clip0">
</clipPath>
</defs>
</svg>
